# xmcd
#
# Track frame offsets:
#	150
#	13115
#	26275
#	39132
#	58927
#	72690
#	82052
#	96560
#	110492
#	125357
#	137445
#	149157
#
# Disc length: 2212 seconds
#
# Revision: 2
# Processed by: cddbd v1.5PL3 Copyright (c) Steve Scherf et al.
# Submitted via: EasyCDDAExtractor 6.5.7.1
#
DISCID=b008a20c
DTITLE=Chitãozinho and Xororó - Somos Apaixonados
DYEAR=1981
DGENRE=Sertanejo
TTITLE0=Somos Apaixonados
TTITLE1=Fio de Cabelo
TTITLE2=Ela Fez a Minha Cabeça
TTITLE3=Casa de Pecados
TTITLE4=Quem é Você
TTITLE5=Explosão de Amor
TTITLE6=Chama de Amor
TTITLE7=Debaixo do Cobertor
TTITLE8=Uma Noite Especial
TTITLE9=Eu Quero é Amor
TTITLE10=Moço Pobre
TTITLE11=Obras do Poeta (Os Passarinhos)
EXTD=
EXTT0=
EXTT1=
EXTT2=
EXTT3=
EXTT4=
EXTT5=
EXTT6=
EXTT7=
EXTT8=
EXTT9=
EXTT10=
EXTT11=
PLAYORDER=
